<svg width="18" height="18" viewBox="0 0 18 18" fill="none" xmlns="http://www.w3.org/2000/svg">
<path d="M18 9C18 13.9706 13.9706 18 9 18C4.02944 18 0 13.9706 0 9C0 4.02944 4.02944 0 9 0C13.9706 0 18 4.02944 18 9Z" fill="#FDCA01"/>
<path fill-rule="evenodd" clip-rule="evenodd" d="M13.0144 5.76722C13.3087 5.99609 13.3617 6.42018 13.1328 6.71444L9.52649 11.3511C8.96515 12.0728 7.90926 12.1665 7.22964 11.5548L4.94843 9.50175C4.67134 9.25237 4.64887 8.82557 4.89826 8.54848C5.14764 8.27139 5.57444 8.24892 5.85153 8.49831L8.13275 10.5514C8.22983 10.6388 8.38067 10.6254 8.46087 10.5223L12.0672 5.88562C12.296 5.59136 12.7201 5.53835 13.0144 5.76722Z" fill="#8645FF"/>
</svg>
