<svg width="25" height="24" viewBox="0 0 25 24" fill="none" xmlns="http://www.w3.org/2000/svg">
<path d="M22.1291 12C22.1291 17.1107 17.9988 21.25 12.9086 21.25V22.75C18.8314 22.75 23.6291 17.935 23.6291 12H22.1291ZM12.9086 21.25C7.8183 21.25 3.68805 17.1107 3.68805 12H2.18805C2.18805 17.935 6.98569 22.75 12.9086 22.75V21.25ZM3.68805 12C3.68805 6.88928 7.8183 2.75 12.9086 2.75V1.25C6.98569 1.25 2.18805 6.06503 2.18805 12H3.68805ZM12.9086 2.75C17.9988 2.75 22.1291 6.88928 22.1291 12H23.6291C23.6291 6.06503 18.8314 1.25 12.9086 1.25V2.75ZM16.1468 12C16.1468 14.6907 15.7104 17.0921 15.032 18.7932C14.6919 19.6459 14.3057 20.2855 13.9153 20.6996C13.5262 21.1122 13.1857 21.25 12.9086 21.25V22.75C13.7327 22.75 14.4414 22.3281 15.0066 21.7287C15.5704 21.1307 16.0436 20.3059 16.4253 19.3489C17.1903 17.4307 17.6468 14.8322 17.6468 12H16.1468ZM12.9086 21.25C12.6314 21.25 12.2909 21.1122 11.9018 20.6996C11.5114 20.2855 11.1252 19.6459 10.7851 18.7932C10.1067 17.0921 9.67035 14.6907 9.67035 12H8.17035C8.17035 14.8322 8.62682 17.4307 9.39183 19.3489C9.77349 20.3059 10.2467 21.1307 10.8105 21.7287C11.3757 22.3281 12.0844 22.75 12.9086 22.75V21.25ZM9.67035 12C9.67035 9.30933 10.1067 6.90788 10.7851 5.20677C11.1252 4.3541 11.5114 3.71449 11.9018 3.30038C12.2909 2.88776 12.6314 2.75 12.9086 2.75V1.25C12.0844 1.25 11.3757 1.67189 10.8105 2.27132C10.2467 2.86926 9.77349 3.69412 9.39183 4.6511C8.62682 6.56927 8.17035 9.16782 8.17035 12H9.67035ZM12.9086 2.75C13.1857 2.75 13.5262 2.88776 13.9153 3.30038C14.3057 3.71449 14.6919 4.3541 15.032 5.20677C15.7104 6.90788 16.1468 9.30933 16.1468 12H17.6468C17.6468 9.16782 17.1903 6.56927 16.4253 4.6511C16.0436 3.69412 15.5704 2.86926 15.0066 2.27132C14.4414 1.67189 13.7327 1.25 12.9086 1.25V2.75ZM12.9086 14.25C10.2074 14.25 7.79098 13.9196 6.07444 13.4031C5.21141 13.1435 4.56764 12.8492 4.15633 12.5566C3.72592 12.2504 3.68805 12.0516 3.68805 12H2.18805C2.18805 12.7768 2.70818 13.3672 3.28683 13.7789C3.88459 14.2041 4.70097 14.5563 5.64225 14.8395C7.53431 15.4088 10.1031 15.75 12.9086 15.75V14.25ZM3.68805 12C3.68805 11.9484 3.72592 11.7496 4.15633 11.4434C4.56764 11.1508 5.21141 10.8565 6.07444 10.5969C7.79098 10.0804 10.2074 9.75 12.9086 9.75V8.25C10.1031 8.25 7.53431 8.59119 5.64225 9.16049C4.70097 9.4437 3.88459 9.79589 3.28683 10.2211C2.70818 10.6328 2.18805 11.2232 2.18805 12H3.68805ZM12.9086 9.75C15.6097 9.75 18.0261 10.0804 19.7427 10.5969C20.6057 10.8565 21.2495 11.1508 21.6608 11.4434C22.0912 11.7496 22.1291 11.9484 22.1291 12H23.6291C23.6291 11.2232 23.1089 10.6328 22.5303 10.2211C21.9325 9.79589 21.1161 9.4437 20.1749 9.16049C18.2828 8.59119 15.714 8.25 12.9086 8.25V9.75ZM22.1291 12C22.1291 12.0516 22.0912 12.2504 21.6608 12.5566C21.2495 12.8492 20.6057 13.1435 19.7427 13.4031C18.0261 13.9196 15.6097 14.25 12.9086 14.25V15.75C15.714 15.75 18.2828 15.4088 20.1749 14.8395C21.1161 14.5563 21.9325 14.2041 22.5303 13.7789C23.1089 13.3672 23.6291 12.7768 23.6291 12H22.1291Z" fill="#28303F"/>
</svg>
