<svg width="20" height="20" viewBox="0 0 20 20" fill="none" xmlns="http://www.w3.org/2000/svg">
<path fill-rule="evenodd" clip-rule="evenodd" d="M8.95834 17.5C8.95834 17.1548 9.23816 16.875 9.58334 16.875H17.5C17.8452 16.875 18.125 17.1548 18.125 17.5C18.125 17.8452 17.8452 18.125 17.5 18.125H9.58334C9.23816 18.125 8.95834 17.8452 8.95834 17.5Z" fill="#FDCA01"/>
<path d="M6.09969 14.9901L8.96028 14.5814C9.37291 14.5225 9.7553 14.3313 10.05 14.0366L15.5736 8.51302C15.5736 8.51302 14.2114 8.51302 12.8492 7.15083C11.487 5.78864 11.487 4.42645 11.487 4.42645L5.96347 9.94999C5.66873 10.2447 5.47754 10.6271 5.41859 11.0397L5.00994 13.9003C4.91913 14.536 5.464 15.0809 6.09969 14.9901Z" fill="#8645FF"/>
<path d="M16.9358 4.42642L15.5736 3.06424C14.8213 2.31192 13.6015 2.31192 12.8492 3.06424L11.487 4.42643C11.487 4.42643 11.487 5.78861 12.8492 7.1508C14.2114 8.51299 15.5736 8.51299 15.5736 8.51299L16.9358 7.1508C17.6881 6.39848 17.6881 5.17874 16.9358 4.42642Z" fill="#FDCA01"/>
</svg>
