<svg width="25" height="24" viewBox="0 0 25 24" fill="none" xmlns="http://www.w3.org/2000/svg">
<path d="M8.92037 8.25C8.50616 8.25 8.17037 8.58579 8.17037 9C8.17037 9.41421 8.50616 9.75 8.92037 9.75V8.25ZM12.9086 9.75C13.3228 9.75 13.6586 9.41421 13.6586 9C13.6586 8.58579 13.3228 8.25 12.9086 8.25V9.75ZM8.92037 12.25C8.50616 12.25 8.17037 12.5858 8.17037 13C8.17037 13.4142 8.50616 13.75 8.92037 13.75V12.25ZM16.8968 13.75C17.311 13.75 17.6468 13.4142 17.6468 13C17.6468 12.5858 17.311 12.25 16.8968 12.25V13.75ZM8.92037 16.25C8.50616 16.25 8.17037 16.5858 8.17037 17C8.17037 17.4142 8.50616 17.75 8.92037 17.75V16.25ZM16.8968 17.75C17.311 17.75 17.6468 17.4142 17.6468 17C17.6468 16.5858 17.311 16.25 16.8968 16.25V17.75ZM17.6463 2C17.6463 1.58579 17.3105 1.25 16.8963 1.25C16.4821 1.25 16.1463 1.58579 16.1463 2H17.6463ZM16.1463 5C16.1463 5.41421 16.4821 5.75 16.8963 5.75C17.3105 5.75 17.6463 5.41421 17.6463 5H16.1463ZM9.66988 2C9.66988 1.58579 9.3341 1.25 8.91988 1.25C8.50567 1.25 8.16988 1.58579 8.16988 2H9.66988ZM8.16988 5C8.16988 5.41421 8.50567 5.75 8.91988 5.75C9.3341 5.75 9.66988 5.41421 9.66988 5H8.16988ZM7.92332 4.25H17.8938V2.75H7.92332V4.25ZM21.132 7.5V18H22.632V7.5H21.132ZM17.8938 21.25H7.92332V22.75H17.8938V21.25ZM4.68512 18V7.5H3.18512V18H4.68512ZM7.92332 21.25C6.137 21.25 4.68512 19.797 4.68512 18H3.18512C3.18512 20.6213 5.3044 22.75 7.92332 22.75V21.25ZM21.132 18C21.132 19.797 19.6801 21.25 17.8938 21.25V22.75C20.5127 22.75 22.632 20.6213 22.632 18H21.132ZM17.8938 4.25C19.6801 4.25 21.132 5.70298 21.132 7.5H22.632C22.632 4.87874 20.5127 2.75 17.8938 2.75V4.25ZM7.92332 2.75C5.3044 2.75 3.18512 4.87874 3.18512 7.5H4.68512C4.68512 5.70298 6.137 4.25 7.92332 4.25V2.75ZM8.92037 9.75H12.9086V8.25H8.92037V9.75ZM8.92037 13.75H16.8968V12.25H8.92037V13.75ZM8.92037 17.75H16.8968V16.25H8.92037V17.75ZM16.1463 2V5H17.6463V2H16.1463ZM8.16988 2V5H9.66988V2H8.16988Z" fill="#28303F"/>
</svg>
