<svg width="20" height="20" viewBox="0 0 20 20" fill="none" xmlns="http://www.w3.org/2000/svg">
<circle cx="10" cy="14.1667" r="0.833333" transform="rotate(-180 10 14.1667)" fill="#28303F"/>
<path d="M9.25003 11.6667C9.25003 12.081 9.58581 12.4167 10 12.4167C10.4142 12.4167 10.75 12.081 10.75 11.6667H9.25003ZM10.75 5.83342C10.75 5.4192 10.4142 5.08342 10 5.08342C9.58581 5.08342 9.25003 5.4192 9.25003 5.83342L10.75 5.83342ZM4.44374 3.92566L4.12709 3.24578L4.44374 3.92566ZM8.64233 1.97024L8.95897 2.65012L8.95897 2.65012L8.64233 1.97024ZM11.3719 1.97024L11.6885 1.29036V1.29036L11.3719 1.97024ZM15.5538 3.9179L15.2372 4.59778L15.5538 3.9179ZM2.50514 7.14819L1.75629 7.18981L2.50514 7.14819ZM8.27299 17.7763L8.70695 17.1646L8.27299 17.7763ZM11.7416 17.777L12.1762 18.3882H12.1762L11.7416 17.777ZM17.4937 7.16702L16.7452 7.12118V7.12118L17.4937 7.16702ZM10.75 11.6667L10.75 5.83342L9.25003 5.83342L9.25003 11.6667H10.75ZM4.76038 4.60554L8.95897 2.65012L8.32569 1.29036L4.12709 3.24578L4.76038 4.60554ZM11.0552 2.65012L15.2372 4.59778L15.8704 3.23802L11.6885 1.29036L11.0552 2.65012ZM1.75629 7.18981C1.91064 9.96662 2.37949 12.0507 3.36782 13.8168C4.35636 15.5832 5.82409 16.9586 7.83903 18.388L8.70695 17.1646C6.77507 15.7941 5.50993 14.573 4.67679 13.0842C3.84342 11.5951 3.40175 9.76505 3.25398 7.10656L1.75629 7.18981ZM12.1762 18.3882C14.2003 16.9488 15.6564 15.5605 16.6352 13.7925C17.6129 12.0264 18.0746 9.95304 18.2423 7.21285L16.7452 7.12118C16.5843 9.74901 16.1493 11.573 15.3228 13.066C14.4974 14.5571 13.2418 15.7898 11.3069 17.1657L12.1762 18.3882ZM7.83903 18.388C9.14371 19.3136 10.8704 19.3167 12.1762 18.3882L11.3069 17.1657C10.5232 17.7231 9.4934 17.7226 8.70695 17.1646L7.83903 18.388ZM8.95897 2.65012C9.62709 2.33896 10.3871 2.33896 11.0552 2.65012L11.6885 1.29036C10.6189 0.79221 9.3953 0.792211 8.32569 1.29036L8.95897 2.65012ZM15.2372 4.59778C16.189 5.04109 16.8114 6.03852 16.7452 7.12118L18.2423 7.21285C18.3474 5.49656 17.3644 3.93381 15.8704 3.23802L15.2372 4.59778ZM4.12709 3.24578C2.64374 3.93662 1.66144 5.48333 1.75629 7.18981L3.25398 7.10656C3.19428 6.03248 3.81484 5.04591 4.76038 4.60554L4.12709 3.24578Z" fill="#28303F"/>
</svg>
