<svg width="18" height="18" viewBox="0 0 18 18" fill="none" xmlns="http://www.w3.org/2000/svg">
<path d="M4.5 6C4.5 5.58579 4.16421 5.25 3.75 5.25C3.33579 5.25 3 5.58579 3 6H4.5ZM15 6C15 5.58579 14.6642 5.25 14.25 5.25C13.8358 5.25 13.5 5.58579 13.5 6H15ZM11.25 8.25C11.25 7.83579 10.9142 7.5 10.5 7.5C10.0858 7.5 9.75 7.83579 9.75 8.25H11.25ZM9.75 12.75C9.75 13.1642 10.0858 13.5 10.5 13.5C10.9142 13.5 11.25 13.1642 11.25 12.75H9.75ZM8.25 8.25C8.25 7.83579 7.91421 7.5 7.5 7.5C7.08579 7.5 6.75 7.83579 6.75 8.25H8.25ZM6.75 12.75C6.75 13.1642 7.08579 13.5 7.5 13.5C7.91421 13.5 8.25 13.1642 8.25 12.75H6.75ZM15.75 4.5C16.1642 4.5 16.5 4.16421 16.5 3.75C16.5 3.33579 16.1642 3 15.75 3V4.5ZM2.25 3C1.83579 3 1.5 3.33579 1.5 3.75C1.5 4.16421 1.83579 4.5 2.25 4.5V3ZM10.9453 2.16795L10.3213 2.58397V2.58397L10.9453 2.16795ZM7.0547 2.16795L6.43066 1.75192L7.0547 2.16795ZM6.75 17.25H11.25V15.75H6.75V17.25ZM3 6V13.5H4.5V6H3ZM15 13.5V6H13.5V13.5H15ZM11.25 17.25C13.3211 17.25 15 15.5711 15 13.5H13.5C13.5 14.7426 12.4926 15.75 11.25 15.75V17.25ZM6.75 15.75C5.50736 15.75 4.5 14.7426 4.5 13.5H3C3 15.5711 4.67893 17.25 6.75 17.25V15.75ZM9.75 8.25V12.75H11.25V8.25H9.75ZM6.75 8.25L6.75 12.75H8.25L8.25 8.25H6.75ZM8.30278 2.25H9.69722V0.75H8.30278V2.25ZM10.3213 2.58397L11.376 4.16603L12.624 3.33397L11.5693 1.75192L10.3213 2.58397ZM12 3H6V4.5H12V3ZM6.62404 4.16603L7.67874 2.58397L6.43066 1.75192L5.37596 3.33397L6.62404 4.16603ZM12 4.5H15.75V3H12V4.5ZM6 3H2.25V4.5H6V3ZM9.69722 2.25C9.94799 2.25 10.1822 2.37533 10.3213 2.58397L11.5693 1.75192C11.152 1.12598 10.4495 0.75 9.69722 0.75V2.25ZM8.30278 0.75C7.55048 0.75 6.84796 1.12598 6.43066 1.75192L7.67874 2.58397C7.81784 2.37533 8.05201 2.25 8.30278 2.25V0.75Z" fill="#B7B7B7"/>
</svg>
