<svg width="20" height="20" viewBox="0 0 20 20" fill="none" xmlns="http://www.w3.org/2000/svg">
<g clip-path="url(#clip0_262_1247)">
<path d="M14.68 2.643L15.2103 2.11267V2.11267L14.68 2.643ZM17.357 5.32001L16.8267 5.85034L17.357 5.32001ZM5.08329 18.3334V19.0834H6.58329V18.3334H5.08329ZM13.4166 18.3334V19.0834H14.9166V18.3334H13.4166ZM12.5 6.58335C12.9142 6.58335 13.25 6.24757 13.25 5.83335C13.25 5.41914 12.9142 5.08335 12.5 5.08335V6.58335ZM7.49996 5.08335C7.08575 5.08335 6.74996 5.41914 6.74996 5.83335C6.74996 6.24757 7.08575 6.58335 7.49996 6.58335V5.08335ZM17.5833 7.67703V15H19.0833V7.67703H17.5833ZM15 17.5834H4.99996V19.0834H15V17.5834ZM2.41663 15V5.00002H0.916626V15H2.41663ZM4.99996 2.41669H12.323V0.916687H4.99996V2.41669ZM14.1496 3.17333L16.8267 5.85034L17.8873 4.78968L15.2103 2.11267L14.1496 3.17333ZM12.323 2.41669C13.0081 2.41669 13.6652 2.68886 14.1496 3.17333L15.2103 2.11267C14.4445 1.34689 13.4059 0.916687 12.323 0.916687V2.41669ZM4.99996 17.5834C3.57322 17.5834 2.41663 16.4268 2.41663 15H0.916626C0.916626 17.2552 2.7448 19.0834 4.99996 19.0834V17.5834ZM17.5833 15C17.5833 16.4268 16.4267 17.5834 15 17.5834V19.0834C17.2551 19.0834 19.0833 17.2552 19.0833 15H17.5833ZM19.0833 7.67703C19.0833 6.59406 18.6531 5.55545 17.8873 4.78968L16.8267 5.85034C17.3111 6.33481 17.5833 6.99189 17.5833 7.67703H19.0833ZM2.41663 5.00002C2.41663 3.57328 3.57322 2.41669 4.99996 2.41669V0.916687C2.7448 0.916687 0.916626 2.74486 0.916626 5.00002H2.41663ZM6.58329 18.3334V13.3334H5.08329V18.3334H6.58329ZM7.49996 12.4167H12.5V10.9167H7.49996V12.4167ZM13.4166 13.3334V18.3334H14.9166V13.3334H13.4166ZM12.5 12.4167C13.0062 12.4167 13.4166 12.8271 13.4166 13.3334H14.9166C14.9166 11.9987 13.8346 10.9167 12.5 10.9167V12.4167ZM6.58329 13.3334C6.58329 12.8271 6.9937 12.4167 7.49996 12.4167V10.9167C6.16527 10.9167 5.08329 11.9987 5.08329 13.3334H6.58329ZM12.5 5.08335L7.49996 5.08335V6.58335L12.5 6.58335V5.08335Z" fill="#28303F"/>
</g>
<defs>
<clipPath id="clip0_262_1247">
<rect width="20" height="20" fill="white"/>
</clipPath>
</defs>
</svg>
