<svg width="20" height="20" viewBox="0 0 20 20" fill="none" xmlns="http://www.w3.org/2000/svg">
<path d="M14.4195 16.2811L14.9499 15.7508L14.9499 15.7508L14.4195 16.2811ZM16.2812 14.4195L16.8115 13.8892L16.8115 13.8892L16.2812 14.4195ZM15.5304 12.608C15.2375 12.3152 14.7626 12.3152 14.4697 12.608C14.1768 12.9009 14.1768 13.3758 14.4697 13.6687L15.5304 12.608ZM13.6687 14.4697C13.3758 14.1768 12.901 14.1768 12.6081 14.4697C12.3152 14.7626 12.3152 15.2374 12.6081 15.5303L13.6687 14.4697ZM4.08337 8.99999C4.08337 6.28459 6.28464 4.08333 9.00003 4.08333V2.58333C5.45621 2.58333 2.58337 5.45617 2.58337 8.99999H4.08337ZM9.00003 4.08333C11.7154 4.08333 13.9167 6.28459 13.9167 8.99999H15.4167C15.4167 5.45617 12.5439 2.58333 9.00003 2.58333V4.08333ZM13.9167 8.99999C13.9167 11.7154 11.7154 13.9167 9.00003 13.9167V15.4167C12.5439 15.4167 15.4167 12.5438 15.4167 8.99999H13.9167ZM9.00003 13.9167C6.28464 13.9167 4.08337 11.7154 4.08337 8.99999H2.58337C2.58337 12.5438 5.45621 15.4167 9.00003 15.4167V13.9167ZM15.7508 15.7508C15.5296 15.972 15.171 15.972 14.9499 15.7508L13.8892 16.8114C14.6962 17.6184 16.0045 17.6184 16.8115 16.8114L15.7508 15.7508ZM15.7508 14.9498C15.972 15.171 15.972 15.5296 15.7508 15.7508L16.8115 16.8114C17.6185 16.0045 17.6184 14.6961 16.8115 13.8892L15.7508 14.9498ZM14.4697 13.6687L15.7508 14.9498L16.8115 13.8892L15.5304 12.608L14.4697 13.6687ZM14.9499 15.7508L13.6687 14.4697L12.6081 15.5303L13.8892 16.8114L14.9499 15.7508Z" fill="#B7B7B7"/>
</svg>
