<svg width="25" height="24" viewBox="0 0 25 24" fill="none" xmlns="http://www.w3.org/2000/svg">
<path d="M21.6267 15.7206L20.9866 15.3298V15.3298L21.6267 15.7206ZM20.675 17.2794L21.3151 17.6702V17.6702L20.675 17.2794ZM4.19045 8.27942L3.55033 7.8886H3.55033L4.19045 8.27942ZM5.14219 6.72057L5.78231 7.11139H5.78231L5.14219 6.72057ZM7.74237 6.06172L8.10177 5.40345L8.10177 5.40344L7.74237 6.06172ZM4.88717 10.7383L4.52777 11.3965H4.52777L4.88717 10.7383ZM18.0748 17.9383L17.7154 18.5965H17.7154L18.0748 17.9383ZM20.93 13.2617L20.5706 13.92L20.93 13.2617ZM5.14219 17.2794L4.50206 17.6702H4.50206L5.14219 17.2794ZM4.19045 15.7206L4.83058 15.3298H4.83058L4.19045 15.7206ZM20.675 6.72058L21.3151 6.32976V6.32976L20.675 6.72058ZM21.6267 8.27943L20.9866 8.67025V8.67025L21.6267 8.27943ZM20.93 10.7383L21.2894 11.3966L20.93 10.7383ZM18.0748 6.06174L18.4342 6.72002V6.72002L18.0748 6.06174ZM4.88717 13.2617L5.24657 13.92H5.24657L4.88717 13.2617ZM7.74237 17.9383L7.38297 17.28L7.38297 17.28L7.74237 17.9383ZM17.9736 6.11698L17.6142 5.4587L17.6142 5.4587L17.9736 6.11698ZM7.84356 6.11697L7.48416 6.77525L7.48416 6.77525L7.84356 6.11697ZM17.9736 17.883L18.333 17.2247H18.333L17.9736 17.883ZM7.84356 17.883L8.20295 18.5413L8.20296 18.5413L7.84356 17.883ZM11.9568 3.75H13.8603V2.25H11.9568V3.75ZM13.8603 20.25H11.9568V21.75H13.8603V20.25ZM11.9568 20.25C11.2797 20.25 10.8034 19.741 10.8034 19.2H9.30337C9.30337 20.6473 10.5314 21.75 11.9568 21.75V20.25ZM15.0138 19.2C15.0138 19.741 14.5374 20.25 13.8603 20.25V21.75C15.2857 21.75 16.5138 20.6473 16.5138 19.2H15.0138ZM13.8603 3.75C14.5374 3.75 15.0138 4.25904 15.0138 4.8H16.5138C16.5138 3.35273 15.2857 2.25 13.8603 2.25V3.75ZM11.9568 2.25C10.5314 2.25 9.30337 3.35273 9.30337 4.8H10.8034C10.8034 4.25904 11.2797 3.75 11.9568 3.75V2.25ZM20.9866 15.3298L20.0348 16.8886L21.3151 17.6702L22.2668 16.1114L20.9866 15.3298ZM4.83058 8.67024L5.78231 7.11139L4.50206 6.32975L3.55033 7.8886L4.83058 8.67024ZM5.78231 7.11139C6.08994 6.60753 6.8075 6.40582 7.38297 6.72L8.10177 5.40344C6.85641 4.72352 5.24569 5.11176 4.50206 6.32975L5.78231 7.11139ZM5.24657 10.08C4.69345 9.77799 4.53921 9.14747 4.83058 8.67024L3.55033 7.8886C2.79044 9.13321 3.26007 10.7044 4.52777 11.3965L5.24657 10.08ZM20.0348 16.8886C19.7272 17.3925 19.0096 17.5942 18.4342 17.28L17.7154 18.5965C18.9607 19.2765 20.5715 18.8882 21.3151 17.6702L20.0348 16.8886ZM22.2668 16.1114C23.0267 14.8668 22.5571 13.2956 21.2894 12.6034L20.5706 13.92C21.1237 14.222 21.2779 14.8525 20.9866 15.3298L22.2668 16.1114ZM5.78231 16.8886L4.83058 15.3298L3.55033 16.1114L4.50206 17.6702L5.78231 16.8886ZM20.0348 7.1114L20.9866 8.67025L22.2668 7.88861L21.3151 6.32976L20.0348 7.1114ZM20.9866 8.67025C21.2779 9.14748 21.1237 9.77801 20.5706 10.08L21.2894 11.3966C22.5571 10.7044 23.0267 9.13323 22.2668 7.88861L20.9866 8.67025ZM18.4342 6.72002C19.0096 6.40583 19.7272 6.60754 20.0348 7.1114L21.3151 6.32976C20.5715 5.11177 18.9607 4.72353 17.7154 5.40346L18.4342 6.72002ZM4.83058 15.3298C4.53921 14.8525 4.69344 14.222 5.24657 13.92L4.52777 12.6035C3.26007 13.2956 2.79044 14.8668 3.55033 16.1114L4.83058 15.3298ZM4.50206 17.6702C5.24569 18.8882 6.85641 19.2765 8.10177 18.5966L7.38297 17.28C6.8075 17.5942 6.08994 17.3925 5.78231 16.8886L4.50206 17.6702ZM18.333 6.77526L18.4342 6.72002L17.7154 5.40346L17.6142 5.4587L18.333 6.77526ZM7.38297 6.72L7.48416 6.77525L8.20296 5.45869L8.10177 5.40345L7.38297 6.72ZM18.4342 17.28L18.333 17.2247L17.6142 18.5413L17.7154 18.5965L18.4342 17.28ZM7.48416 17.2247L7.38297 17.28L8.10177 18.5966L8.20295 18.5413L7.48416 17.2247ZM4.52777 11.3965C5.00366 11.6564 5.00366 12.3436 4.52777 12.6035L5.24657 13.92C6.76406 13.0915 6.76407 10.9085 5.24657 10.08L4.52777 11.3965ZM8.20296 18.5413C8.69609 18.2721 9.30337 18.6281 9.30337 19.2H10.8034C10.8034 17.4967 8.98346 16.4062 7.48416 17.2248L8.20296 18.5413ZM16.5138 19.2C16.5138 18.628 17.1211 18.2721 17.6142 18.5413L18.333 17.2247C16.8337 16.4062 15.0138 17.4967 15.0138 19.2H16.5138ZM21.2894 12.6034C20.8135 12.3436 20.8135 11.6564 21.2894 11.3966L20.5706 10.08C19.0531 10.9085 19.0531 13.0915 20.5706 13.92L21.2894 12.6034ZM7.48416 6.77525C8.98346 7.59382 10.8034 6.50327 10.8034 4.8H9.30337C9.30337 5.37195 8.69609 5.72792 8.20296 5.45869L7.48416 6.77525ZM17.6142 5.4587C17.1211 5.72793 16.5138 5.37196 16.5138 4.8H15.0138C15.0138 6.50328 16.8337 7.59383 18.333 6.77526L17.6142 5.4587ZM15.1497 12C15.1497 13.2447 14.1442 14.25 12.9086 14.25V15.75C14.9768 15.75 16.6497 14.069 16.6497 12H15.1497ZM12.9086 14.25C11.6729 14.25 10.6674 13.2447 10.6674 12H9.16743C9.16743 14.069 10.8403 15.75 12.9086 15.75V14.25ZM10.6674 12C10.6674 10.7553 11.6729 9.75 12.9086 9.75V8.25C10.8403 8.25 9.16743 9.93102 9.16743 12H10.6674ZM12.9086 9.75C14.1442 9.75 15.1497 10.7553 15.1497 12H16.6497C16.6497 9.93102 14.9768 8.25 12.9086 8.25V9.75Z" fill="#28303F"/>
</svg>
