<svg width="20" height="20" viewBox="0 0 20 20" fill="none" xmlns="http://www.w3.org/2000/svg">
<path d="M13.8974 8.74078C14.1224 9.08853 14.5867 9.18801 14.9345 8.96298C15.2822 8.73794 15.3817 8.2736 15.1567 7.92585L13.8974 8.74078ZM4.84326 7.92585C4.61822 8.2736 4.7177 8.73794 5.06546 8.96298C5.41321 9.18801 5.87755 9.08853 6.10258 8.74078L4.84326 7.92585ZM13.1431 10.3859C13.3562 10.0307 13.2411 9.56997 12.8859 9.35686C12.5307 9.14375 12.07 9.25892 11.8569 9.61411L13.1431 10.3859ZM5 17.4166H15V15.9166H5V17.4166ZM19.0833 13.3333V11.6666H17.5833V13.3333H19.0833ZM0.916664 11.6666V13.3333H2.41666V11.6666H0.916664ZM10 2.58331C4.98341 2.58331 0.916664 6.65006 0.916664 11.6666H2.41666C2.41666 7.47849 5.81184 4.08331 10 4.08331V2.58331ZM19.0833 11.6666C19.0833 6.65006 15.0166 2.58331 10 2.58331V4.08331C14.1882 4.08331 17.5833 7.47849 17.5833 11.6666H19.0833ZM15 17.4166C17.2552 17.4166 19.0833 15.5885 19.0833 13.3333H17.5833C17.5833 14.76 16.4267 15.9166 15 15.9166V17.4166ZM5 15.9166C3.57326 15.9166 2.41666 14.76 2.41666 13.3333H0.916664C0.916664 15.5885 2.74483 17.4166 5 17.4166V15.9166ZM8.25 16.6666C8.25 15.7001 9.0335 14.9166 10 14.9166V13.4166C8.20507 13.4166 6.75 14.8717 6.75 16.6666H8.25ZM10 14.9166C10.9665 14.9166 11.75 15.7001 11.75 16.6666H13.25C13.25 14.8717 11.7949 13.4166 10 13.4166V14.9166ZM9.99998 6.58331C11.9807 6.58331 13.1267 7.54979 13.8974 8.74078L15.1567 7.92585C14.1841 6.42283 12.6129 5.08331 9.99998 5.08331V6.58331ZM6.10258 8.74078C6.87328 7.54979 8.01928 6.58331 9.99998 6.58331V5.08331C7.38707 5.08331 5.81588 6.42283 4.84326 7.92585L6.10258 8.74078ZM10.6431 14.5525L13.1431 10.3859L11.8569 9.61411L9.35688 13.7808L10.6431 14.5525Z" fill="#28303F"/>
</svg>
