<svg width="18" height="18" viewBox="0 0 18 18" fill="none" xmlns="http://www.w3.org/2000/svg">
<path d="M9 17.75C13.8325 17.75 17.75 13.8325 17.75 9H16.25C16.25 13.0041 13.0041 16.25 9 16.25V17.75ZM0.25 9C0.25 13.8325 4.16751 17.75 9 17.75V16.25C4.99594 16.25 1.75 13.0041 1.75 9H0.25ZM9 0.25C4.16751 0.25 0.25 4.16751 0.25 9H1.75C1.75 4.99594 4.99594 1.75 9 1.75V0.25ZM9 1.75C13.0041 1.75 16.25 4.99594 16.25 9H17.75C17.75 4.16751 13.8325 0.25 9 0.25V1.75Z" fill="url(#paint0_linear_67_2093)"/>
<defs>
<linearGradient id="paint0_linear_67_2093" x1="20" y1="7" x2="9" y2="17" gradientUnits="userSpaceOnUse">
<stop offset="0.159375" stop-color="#8645FF"/>
<stop offset="0.503125" stop-color="#D4C7ED"/>
</linearGradient>
</defs>
</svg>
