<svg width="15" height="14" viewBox="0 0 15 14" fill="none" xmlns="http://www.w3.org/2000/svg">
<path opacity="0.4" d="M6.98762 1.81833C5.39485 0.702239 3.15953 0.19646 1.49575 0.0084538C0.672317 -0.084593 0 0.603018 0 1.45139V9.89996C0 10.7483 0.672317 11.4362 1.49575 11.5292C3.15953 11.7172 5.39485 12.223 6.98762 13.3391C7.14068 13.4464 7.32034 13.5 7.5 13.5V1.97921C7.32034 1.97921 7.14068 1.92559 6.98762 1.81833Z" fill="#8645FF"/>
<path fill-rule="evenodd" clip-rule="evenodd" d="M1.69421 3.85479C1.74175 3.54779 2.02917 3.33746 2.33617 3.385C3.31325 3.53632 4.41361 3.78925 5.45296 4.19116C5.74271 4.30321 5.88677 4.62893 5.77472 4.91868C5.66267 5.20843 5.33695 5.35249 5.0472 5.24044C4.10322 4.8754 3.08558 4.63947 2.16399 4.49675C1.85699 4.4492 1.64666 4.16179 1.69421 3.85479Z" fill="#FDCA01"/>
<path fill-rule="evenodd" clip-rule="evenodd" d="M1.69421 6.85479C1.74175 6.54779 2.02917 6.33746 2.33617 6.385C2.83097 6.46163 3.35593 6.56409 3.88768 6.69826C4.18891 6.77425 4.37149 7.08005 4.29549 7.38127C4.21949 7.68249 3.9137 7.86507 3.61248 7.78907C3.11868 7.66449 2.62843 7.56868 2.16399 7.49675C1.85699 7.4492 1.64666 7.16179 1.69421 6.85479Z" fill="#FDCA01"/>
<path d="M8.01238 1.81833C9.60515 0.702239 11.8405 0.19646 13.5043 0.0084538C14.3277 -0.084593 15 0.603018 15 1.45138V9.89996C15 10.7483 14.3277 11.4362 13.5043 11.5292C11.8405 11.7172 9.60515 12.223 8.01238 13.3391C7.85932 13.4464 7.67966 13.5 7.5 13.5V1.97921C7.67966 1.97921 7.85932 1.92559 8.01238 1.81833Z" fill="#8645FF"/>
</svg>
