<svg width="15" height="15" viewBox="0 0 15 15" fill="none" xmlns="http://www.w3.org/2000/svg">
<g clip-path="url(#clip0_266_1133)">
<path d="M13 7.5C13 10.5376 10.5376 13 7.5 13V14.5C11.366 14.5 14.5 11.366 14.5 7.5H13ZM7.5 13C4.46243 13 2 10.5376 2 7.5H0.5C0.5 11.366 3.63401 14.5 7.5 14.5V13ZM2 7.5C2 4.46243 4.46243 2 7.5 2V0.5C3.63401 0.5 0.5 3.63401 0.5 7.5H2ZM7.5 2C10.5376 2 13 4.46243 13 7.5H14.5C14.5 3.63401 11.366 0.5 7.5 0.5V2ZM9.25 7.5C9.25 9.1549 8.98032 10.6186 8.57141 11.6409C8.36612 12.1541 8.14044 12.5191 7.9282 12.7435C7.71746 12.9664 7.5725 13 7.5 13V14.5C8.11785 14.5 8.63058 14.1839 9.01803 13.7742C9.40398 13.3661 9.717 12.8158 9.96412 12.198C10.46 10.9582 10.75 9.29688 10.75 7.5H9.25ZM7.5 13C7.4275 13 7.28254 12.9664 7.0718 12.7435C6.85956 12.5191 6.63388 12.1541 6.42859 11.6409C6.01968 10.6186 5.75 9.1549 5.75 7.5H4.25C4.25 9.29688 4.53996 10.9582 5.03588 12.198C5.283 12.8158 5.59602 13.3661 5.98197 13.7742C6.36942 14.1839 6.88215 14.5 7.5 14.5V13ZM5.75 7.5C5.75 5.8451 6.01968 4.3814 6.42859 3.35913C6.63388 2.84591 6.85956 2.48091 7.0718 2.25649C7.28254 2.03365 7.4275 2 7.5 2V0.5C6.88215 0.5 6.36942 0.816131 5.98197 1.22583C5.59602 1.63394 5.283 2.18423 5.03588 2.80204C4.53996 4.04182 4.25 5.70312 4.25 7.5H5.75ZM7.5 2C7.5725 2 7.71746 2.03365 7.9282 2.25649C8.14044 2.48091 8.36612 2.84591 8.57141 3.35913C8.98032 4.3814 9.25 5.8451 9.25 7.5H10.75C10.75 5.70312 10.46 4.04182 9.96412 2.80204C9.717 2.18423 9.40398 1.63394 9.01803 1.22583C8.63058 0.816131 8.11785 0.5 7.5 0.5V2ZM7.5 8.625C5.82607 8.625 4.33957 8.4205 3.29609 8.10746C2.76958 7.9495 2.39813 7.77631 2.17505 7.61809C1.93249 7.44605 2 7.39527 2 7.5H0.5C0.5 8.12249 0.917283 8.56498 1.30726 8.84158C1.71672 9.132 2.26056 9.36284 2.86507 9.5442C4.08365 9.90977 5.72215 10.125 7.5 10.125V8.625ZM2 7.5C2 7.60473 1.93249 7.55395 2.17505 7.38191C2.39813 7.22369 2.76958 7.0505 3.29609 6.89254C4.33957 6.5795 5.82607 6.375 7.5 6.375V4.875C5.72215 4.875 4.08365 5.09023 2.86507 5.4558C2.26056 5.63716 1.71672 5.868 1.30726 6.15842C0.917283 6.43502 0.5 6.87751 0.5 7.5H2ZM7.5 6.375C9.17393 6.375 10.6604 6.5795 11.7039 6.89254C12.2304 7.0505 12.6019 7.22369 12.8249 7.38191C13.0675 7.55395 13 7.60473 13 7.5H14.5C14.5 6.87751 14.0827 6.43502 13.6927 6.15842C13.2833 5.868 12.7394 5.63716 12.1349 5.4558C10.9164 5.09023 9.27785 4.875 7.5 4.875V6.375ZM13 7.5C13 7.39527 13.0675 7.44605 12.8249 7.61809C12.6019 7.77631 12.2304 7.9495 11.7039 8.10746C10.6604 8.4205 9.17393 8.625 7.5 8.625V10.125C9.27785 10.125 10.9164 9.90977 12.1349 9.5442C12.7394 9.36284 13.2833 9.132 13.6927 8.84158C14.0827 8.56498 14.5 8.12249 14.5 7.5H13Z" fill="#B7B7B7"/>
</g>
<defs>
<clipPath id="clip0_266_1133">
<rect width="15" height="15" fill="white"/>
</clipPath>
</defs>
</svg>
