<svg width="28" height="24" viewBox="0 0 28 24" fill="none" xmlns="http://www.w3.org/2000/svg">
<path d="M17.9167 7C17.9167 8.69063 16.2758 10.25 14 10.25V11.75C16.879 11.75 19.4167 9.72765 19.4167 7H17.9167ZM14 10.25C11.7243 10.25 10.0834 8.69063 10.0834 7H8.58337C8.58337 9.72765 11.1211 11.75 14 11.75V10.25ZM10.0834 7C10.0834 5.30937 11.7243 3.75 14 3.75V2.25C11.1211 2.25 8.58337 4.27235 8.58337 7H10.0834ZM14 3.75C16.2758 3.75 17.9167 5.30937 17.9167 7H19.4167C19.4167 4.27235 16.879 2.25 14 2.25V3.75ZM21.4167 17.5C21.4167 17.7296 21.3113 18.0111 20.9911 18.3355C20.6678 18.6632 20.1627 18.9926 19.4793 19.2855C18.1153 19.8701 16.1786 20.25 14 20.25V21.75C16.3318 21.75 18.4785 21.3464 20.0702 20.6642C20.8647 20.3237 21.5556 19.899 22.0587 19.3892C22.5651 18.8761 22.9167 18.2369 22.9167 17.5H21.4167ZM14 20.25C11.8215 20.25 9.88482 19.8701 8.52077 19.2855C7.83742 18.9926 7.33232 18.6632 7.00896 18.3355C6.68878 18.0111 6.58337 17.7296 6.58337 17.5H5.08337C5.08337 18.2369 5.43501 18.8761 5.94134 19.3892C6.44449 19.899 7.13538 20.3237 7.9299 20.6642C9.5216 21.3464 11.6682 21.75 14 21.75V20.25ZM6.58337 17.5C6.58337 17.2704 6.68878 16.9889 7.00896 16.6645C7.33232 16.3368 7.83742 16.0074 8.52077 15.7145C9.88482 15.1299 11.8215 14.75 14 14.75V13.25C11.6682 13.25 9.5216 13.6536 7.9299 14.3358C7.13538 14.6763 6.44449 15.101 5.94134 15.6108C5.43501 16.1239 5.08337 16.7631 5.08337 17.5H6.58337ZM14 14.75C16.1786 14.75 18.1153 15.1299 19.4793 15.7145C20.1627 16.0074 20.6678 16.3368 20.9911 16.6645C21.3113 16.9889 21.4167 17.2704 21.4167 17.5H22.9167C22.9167 16.7631 22.5651 16.1239 22.0587 15.6108C21.5556 15.101 20.8647 14.6763 20.0702 14.3358C18.4785 13.6536 16.3318 13.25 14 13.25V14.75Z" fill="#B7B7B7"/>
</svg>
