<svg width="13" height="13" viewBox="0 0 13 13" fill="none" xmlns="http://www.w3.org/2000/svg">
<path d="M0.585786 9.07107C-0.195262 9.85212 -0.195262 11.1184 0.585787 11.8995C1.36684 12.6805 2.63317 12.6805 3.41421 11.8995L6.24264 9.07107L9.07107 11.8995C9.85212 12.6805 11.1184 12.6805 11.8995 11.8995C12.6805 11.1184 12.6805 9.85212 11.8995 9.07107L9.07107 6.24264L11.8995 3.41421C12.6805 2.63317 12.6805 1.36684 11.8995 0.585787C11.1184 -0.195262 9.85212 -0.195262 9.07107 0.585787L6.24264 3.41421L3.41421 0.585786C2.63317 -0.195262 1.36684 -0.195262 0.585787 0.585786C-0.195262 1.36683 -0.195261 2.63316 0.585787 3.41421L3.41421 6.24264L0.585786 9.07107Z" fill="#B7B7B7"/>
</svg>
