<svg width="141" height="23" viewBox="0 0 141 23" fill="none" xmlns="http://www.w3.org/2000/svg">
<path d="M15.9176 6.65625H12.1847C12.1165 6.1733 11.9773 5.74432 11.767 5.36932C11.5568 4.98864 11.2869 4.66477 10.9574 4.39773C10.6278 4.13068 10.2472 3.92614 9.81534 3.78409C9.3892 3.64205 8.92614 3.57102 8.42614 3.57102C7.52273 3.57102 6.7358 3.79545 6.06534 4.24432C5.39489 4.6875 4.875 5.33523 4.50568 6.1875C4.13636 7.03409 3.9517 8.0625 3.9517 9.27273C3.9517 10.517 4.13636 11.5625 4.50568 12.4091C4.88068 13.2557 5.40341 13.8949 6.07386 14.3267C6.74432 14.7585 7.51989 14.9744 8.40057 14.9744C8.89489 14.9744 9.35227 14.9091 9.77273 14.7784C10.1989 14.6477 10.5767 14.4574 10.9062 14.2074C11.2358 13.9517 11.5085 13.642 11.7244 13.2784C11.946 12.9148 12.0994 12.5 12.1847 12.0341L15.9176 12.0511C15.821 12.8523 15.5795 13.625 15.1932 14.3693C14.8125 15.108 14.2983 15.7699 13.6506 16.3551C13.0085 16.9347 12.2415 17.3949 11.3494 17.7358C10.4631 18.071 9.46023 18.2386 8.34091 18.2386C6.78409 18.2386 5.39205 17.8864 4.16477 17.1818C2.94318 16.4773 1.97727 15.4574 1.26705 14.1222C0.5625 12.7869 0.210227 11.1705 0.210227 9.27273C0.210227 7.36932 0.568182 5.75 1.28409 4.41477C2 3.07955 2.97159 2.0625 4.19886 1.36364C5.42614 0.659091 6.80682 0.306818 8.34091 0.306818C9.35227 0.306818 10.2898 0.448863 11.1534 0.732954C12.0227 1.01705 12.7926 1.43182 13.4631 1.97727C14.1335 2.51704 14.679 3.17898 15.0994 3.96307C15.5256 4.74716 15.7983 5.64489 15.9176 6.65625ZM20.9013 22.9091C20.4411 22.9091 20.0092 22.8722 19.6058 22.7983C19.2081 22.7301 18.8786 22.642 18.6172 22.5341L19.4354 19.8239C19.8615 19.9545 20.245 20.0256 20.5859 20.0369C20.9325 20.0483 21.2308 19.9688 21.4808 19.7983C21.7365 19.6278 21.9439 19.3381 22.103 18.929L22.3161 18.375L17.62 4.90909H21.4382L24.1484 14.5227H24.2848L27.0206 4.90909H30.8643L25.7763 19.4148C25.532 20.1193 25.1996 20.733 24.7791 21.2557C24.3643 21.7841 23.8388 22.1903 23.2024 22.4744C22.5661 22.7642 21.799 22.9091 20.9013 22.9091ZM32.7905 18V0.545454H36.4212V7.10795H36.532C36.6911 6.75568 36.9212 6.39773 37.2223 6.03409C37.5291 5.66477 37.9268 5.35795 38.4155 5.11364C38.9098 4.86364 39.5234 4.73864 40.2564 4.73864C41.2109 4.73864 42.0916 4.98864 42.8984 5.48864C43.7053 5.98295 44.3501 6.73011 44.8331 7.73011C45.3161 8.72443 45.5575 9.97159 45.5575 11.4716C45.5575 12.9318 45.3217 14.1648 44.8501 15.1705C44.3842 16.1705 43.7479 16.929 42.9411 17.446C42.1399 17.9574 41.2422 18.2131 40.2479 18.2131C39.5433 18.2131 38.9439 18.0966 38.4496 17.8636C37.9609 17.6307 37.5604 17.3381 37.2479 16.9858C36.9354 16.6278 36.6967 16.267 36.532 15.9034H36.37V18H32.7905ZM36.3445 11.4545C36.3445 12.233 36.4524 12.9119 36.6683 13.4915C36.8842 14.071 37.1967 14.5227 37.6058 14.8466C38.0149 15.1648 38.5121 15.3239 39.0973 15.3239C39.6882 15.3239 40.1882 15.1619 40.5973 14.8381C41.0064 14.5085 41.3161 14.054 41.5263 13.4744C41.7422 12.8892 41.8501 12.2159 41.8501 11.4545C41.8501 10.6989 41.745 10.0341 41.5348 9.46023C41.3246 8.88636 41.0149 8.4375 40.6058 8.11364C40.1967 7.78977 39.6939 7.62784 39.0973 7.62784C38.5064 7.62784 38.0064 7.78409 37.5973 8.09659C37.1939 8.40909 36.8842 8.85227 36.6683 9.42614C36.4524 10 36.3445 10.6761 36.3445 11.4545ZM53.946 18.2557C52.5994 18.2557 51.4403 17.983 50.4688 17.4375C49.5028 16.8864 48.7585 16.108 48.2358 15.1023C47.7131 14.0909 47.4517 12.8949 47.4517 11.5142C47.4517 10.1676 47.7131 8.9858 48.2358 7.96875C48.7585 6.9517 49.4943 6.15909 50.4432 5.59091C51.3977 5.02273 52.517 4.73864 53.8011 4.73864C54.6648 4.73864 55.4688 4.87784 56.2131 5.15625C56.9631 5.42898 57.6165 5.84091 58.1733 6.39205C58.7358 6.94318 59.1733 7.63636 59.4858 8.47159C59.7983 9.30114 59.9545 10.2727 59.9545 11.3864V12.3835H48.9006V10.1335H56.5369C56.5369 9.6108 56.4233 9.14773 56.196 8.74432C55.9688 8.34091 55.6534 8.02557 55.25 7.7983C54.8523 7.56534 54.3892 7.44886 53.8608 7.44886C53.3097 7.44886 52.821 7.5767 52.3949 7.83239C51.9744 8.08239 51.6449 8.42045 51.4062 8.84659C51.1676 9.26705 51.0455 9.7358 51.0398 10.2528V12.392C51.0398 13.0398 51.1591 13.5994 51.3977 14.071C51.642 14.5426 51.9858 14.9062 52.429 15.1619C52.8722 15.4176 53.3977 15.5455 54.0057 15.5455C54.4091 15.5455 54.7784 15.4886 55.1136 15.375C55.4489 15.2614 55.7358 15.0909 55.9744 14.8636C56.2131 14.6364 56.3949 14.358 56.5199 14.0284L59.8778 14.25C59.7074 15.0568 59.358 15.7614 58.8295 16.3636C58.3068 16.9602 57.6307 17.4261 56.8011 17.7614C55.9773 18.0909 55.0256 18.2557 53.946 18.2557ZM62.3239 18V4.90909H65.8438V7.19318H65.9801C66.2188 6.38068 66.6193 5.76705 67.1818 5.35227C67.7443 4.93182 68.392 4.72159 69.125 4.72159C69.3068 4.72159 69.5028 4.73295 69.7131 4.75568C69.9233 4.77841 70.108 4.80966 70.267 4.84943V8.07102C70.0966 8.01989 69.8608 7.97443 69.5597 7.93466C69.2585 7.89489 68.983 7.875 68.733 7.875C68.1989 7.875 67.7216 7.99148 67.3011 8.22443C66.8864 8.4517 66.5568 8.76989 66.3125 9.17898C66.0739 9.58807 65.9545 10.0597 65.9545 10.5938V18H62.3239Z" fill="#FDCA01"/>
<path d="M83.7862 6.1875C83.6669 5.77273 83.4993 5.40625 83.2834 5.08807C83.0675 4.7642 82.8033 4.49148 82.4908 4.26989C82.1839 4.04261 81.8317 3.86932 81.4339 3.75C81.0419 3.63068 80.6072 3.57102 80.13 3.57102C79.2379 3.57102 78.4538 3.79261 77.7777 4.23579C77.1072 4.67898 76.5845 5.32386 76.2095 6.17045C75.8345 7.01136 75.647 8.03977 75.647 9.25568C75.647 10.4716 75.8317 11.5057 76.201 12.358C76.5703 13.2102 77.093 13.8608 77.7692 14.3097C78.4453 14.7528 79.2436 14.9744 80.1641 14.9744C80.9993 14.9744 81.7124 14.8267 82.3033 14.5312C82.8999 14.2301 83.3544 13.8068 83.6669 13.2614C83.9851 12.7159 84.1442 12.071 84.1442 11.3267L84.8942 11.4375H80.3942V8.65909H87.6982V10.858C87.6982 12.392 87.3743 13.7102 86.7266 14.8125C86.0788 15.9091 85.1868 16.7557 84.0504 17.3523C82.9141 17.9432 81.6129 18.2386 80.147 18.2386C78.5107 18.2386 77.0732 17.8778 75.8345 17.1562C74.5959 16.429 73.63 15.3977 72.9368 14.0625C72.2493 12.7216 71.9055 11.1307 71.9055 9.28977C71.9055 7.875 72.1101 6.61364 72.5192 5.50568C72.9339 4.39205 73.5135 3.44886 74.2578 2.67614C75.0021 1.90341 75.8686 1.31534 76.8572 0.911931C77.8459 0.508522 78.9169 0.306818 80.0703 0.306818C81.0589 0.306818 81.9794 0.451704 82.8317 0.741477C83.6839 1.02557 84.4396 1.42898 85.0987 1.9517C85.7635 2.47443 86.3061 3.09659 86.7266 3.81818C87.147 4.53409 87.4169 5.32386 87.5362 6.1875H83.7862ZM98.7969 12.4261V4.90909H102.428V18H98.9418V15.6222H98.8054C98.5099 16.3892 98.0185 17.0057 97.331 17.4716C96.6491 17.9375 95.8168 18.1705 94.8338 18.1705C93.9588 18.1705 93.1889 17.9716 92.5241 17.5739C91.8594 17.1761 91.3395 16.6108 90.9645 15.8778C90.5952 15.1449 90.4077 14.267 90.402 13.2443V4.90909H94.0327V12.5966C94.0384 13.3693 94.2457 13.9801 94.6548 14.429C95.0639 14.8778 95.6122 15.1023 96.2997 15.1023C96.7372 15.1023 97.1463 15.0028 97.527 14.804C97.9077 14.5994 98.2145 14.2983 98.4474 13.9006C98.6861 13.5028 98.8026 13.0114 98.7969 12.4261ZM109.065 18.2472C108.229 18.2472 107.485 18.1023 106.832 17.8125C106.178 17.517 105.661 17.0824 105.281 16.5085C104.906 15.929 104.718 15.2074 104.718 14.3438C104.718 13.6165 104.852 13.0057 105.119 12.5114C105.386 12.017 105.749 11.6193 106.21 11.3182C106.67 11.017 107.192 10.7898 107.778 10.6364C108.369 10.483 108.988 10.375 109.636 10.3125C110.397 10.233 111.011 10.1591 111.477 10.0909C111.942 10.017 112.281 9.90909 112.491 9.76705C112.701 9.625 112.806 9.41477 112.806 9.13636V9.08523C112.806 8.54545 112.636 8.12784 112.295 7.83239C111.96 7.53693 111.482 7.3892 110.863 7.3892C110.21 7.3892 109.69 7.53409 109.303 7.82386C108.917 8.10795 108.661 8.46591 108.536 8.89773L105.178 8.625C105.349 7.82955 105.684 7.14205 106.184 6.5625C106.684 5.97727 107.329 5.52841 108.119 5.21591C108.914 4.89773 109.835 4.73864 110.88 4.73864C111.607 4.73864 112.303 4.82386 112.968 4.99432C113.638 5.16477 114.232 5.42898 114.749 5.78693C115.272 6.14489 115.684 6.60511 115.985 7.16761C116.286 7.72443 116.437 8.39205 116.437 9.17045V18H112.994V16.1847H112.891C112.681 16.5938 112.4 16.9545 112.048 17.267C111.695 17.5739 111.272 17.8153 110.778 17.9915C110.283 18.1619 109.712 18.2472 109.065 18.2472ZM110.104 15.7415C110.638 15.7415 111.11 15.6364 111.519 15.4261C111.928 15.2102 112.249 14.9205 112.482 14.5568C112.715 14.1932 112.832 13.7812 112.832 13.321V11.9318C112.718 12.0057 112.562 12.0739 112.363 12.1364C112.17 12.1932 111.951 12.2472 111.707 12.2983C111.462 12.3437 111.218 12.3864 110.974 12.4261C110.729 12.4602 110.508 12.4915 110.309 12.5199C109.883 12.5824 109.511 12.6818 109.192 12.8182C108.874 12.9545 108.627 13.1392 108.451 13.3722C108.275 13.5994 108.187 13.8835 108.187 14.2244C108.187 14.7188 108.366 15.0966 108.724 15.358C109.087 15.6136 109.548 15.7415 110.104 15.7415ZM119.254 18V4.90909H122.773V7.19318H122.91C123.148 6.38068 123.549 5.76705 124.112 5.35227C124.674 4.93182 125.322 4.72159 126.055 4.72159C126.237 4.72159 126.433 4.73295 126.643 4.75568C126.853 4.77841 127.038 4.80966 127.197 4.84943V8.07102C127.026 8.01989 126.79 7.97443 126.489 7.93466C126.188 7.89489 125.913 7.875 125.663 7.875C125.129 7.875 124.651 7.99148 124.231 8.22443C123.816 8.4517 123.487 8.76989 123.242 9.17898C123.004 9.58807 122.884 10.0597 122.884 10.5938V18H119.254ZM133.288 18.2131C132.294 18.2131 131.393 17.9574 130.587 17.446C129.786 16.929 129.149 16.1705 128.678 15.1705C128.212 14.1648 127.979 12.9318 127.979 11.4716C127.979 9.97159 128.22 8.72443 128.703 7.73011C129.186 6.73011 129.828 5.98295 130.629 5.48864C131.436 4.98864 132.32 4.73864 133.28 4.73864C134.013 4.73864 134.624 4.86364 135.112 5.11364C135.607 5.35795 136.004 5.66477 136.305 6.03409C136.612 6.39773 136.845 6.75568 137.004 7.10795H137.115V0.545454H140.737V18H137.158V15.9034H137.004C136.834 16.267 136.592 16.6278 136.28 16.9858C135.973 17.3381 135.572 17.6307 135.078 17.8636C134.589 18.0966 133.993 18.2131 133.288 18.2131ZM134.439 15.3239C135.024 15.3239 135.518 15.1648 135.922 14.8466C136.331 14.5227 136.643 14.071 136.859 13.4915C137.081 12.9119 137.192 12.233 137.192 11.4545C137.192 10.6761 137.084 10 136.868 9.42614C136.652 8.85227 136.339 8.40909 135.93 8.09659C135.521 7.78409 135.024 7.62784 134.439 7.62784C133.842 7.62784 133.339 7.78977 132.93 8.11364C132.521 8.4375 132.212 8.88636 132.001 9.46023C131.791 10.0341 131.686 10.6989 131.686 11.4545C131.686 12.2159 131.791 12.8892 132.001 13.4744C132.217 14.054 132.527 14.5085 132.93 14.8381C133.339 15.1619 133.842 15.3239 134.439 15.3239Z" fill="#28303F"/>
</svg>
